<?xml version="1.0" encoding="UTF-8"?>
<svg id="_レイヤー_2" data-name="レイヤー 2" xmlns="http://www.w3.org/2000/svg" viewBox="0 0 1620 680">
  <defs>
    <style>
      .cls-1 {
        fill: #00c105;
      }
    </style>
  </defs>
  <path class="cls-1" d="m165.3,561.07c-3.61-.14-6.77-1.27-9.49-3.38l-2.74-3.59c-.75-1.83-1.23-3.8-1.44-5.91s-.25-4.29-.11-6.54h-6.22c-2.04,0-3.88-.45-5.52-1.34-1.22-1.64-1.59-3.68-1.12-6.12l2.04-4.92,6.33-.21v1.12c-1.22,1.92-1.97,4.1-2.25,6.54l1.34,2.46,2.25.91,3.38-.91c.33-2.11.75-4.18,1.27-6.22.52-2.04,1.01-4.11,1.48-6.22h-6.33c-.61-2.39-1.05-4.95-1.34-7.66v-12.87l.21-2.04h6.05v7.73l-.21,3.09c.14,3.94.68,7.64,1.62,11.11h.42c1.22-3.94,2.65-7.78,4.29-11.53,1.64-3.75,3.52-7.43,5.62-11.04l6.33-.21v1.12c-2.86,4.97-5.38,10.11-7.56,15.43-2.18,5.32-3.79,10.84-4.82,16.56h.63c4.22-1.31,8.13-3.21,11.74-5.7,3.61-2.48,7.76-3.66,12.45-3.52v1.12c-3.94,2.53-8.05,4.78-12.34,6.75s-8.61,3.7-12.97,5.2c-.42,2.25-.56,4.67-.42,7.24.28,3.14,1.48,5.91,3.59,8.3l2.53,2.04c2.53,1.36,5.3,1.97,8.3,1.83l6.54-.21v1.12l-2.46.42h-11.04Z"/>
  <path class="cls-1" d="m210.44,558.4v-.49l-11.25-22.99-1.12-.21-.49.63-3.38,2.74c-2.11.47-4.36.61-6.75.42v-1.12l3.87-2.67.42-.7,4.99-3.16.21-1.12c-.75-1.78-1.43-3.66-2.04-5.62-.61-1.97-.91-4.08-.91-6.33l.91-1.83c2.86-.89,5.95-1.17,9.28-.84l9,2.46c1.22-1.97,2.05-4.04,2.5-6.22.44-2.18.97-4.32,1.58-6.43l6.33-.21v1.34c-.61,2.11-1.18,4.22-1.72,6.33-.54,2.11-1.25,4.15-2.14,6.12l-1.12.91-8.58.21-9-2.53c-.61.75-.84,1.73-.7,2.95l2.04,7.03.63.21c4.08-2.11,8.23-3.91,12.45-5.41,4.22-1.5,8.65-2.62,13.29-3.38h11.74l3.16,1.34c.75,1.22.98,2.58.7,4.08l-2.04,3.59-1.34,1.62-2.53,2.46-2.67,2.67c-1.36,1.69-2.98,2.68-4.85,2.99-1.88.31-3.87.36-5.98.18v-1.12l2.46-1.34,3.16-2.95h.49l.21-.63c2.53-2.11,4.71-4.66,6.54-7.66l.21-1.83-2.04-1.83-2.95-.21c-5.11,1.03-10.07,2.53-14.87,4.5-4.81,1.97-9.46,4.15-13.96,6.54v.7c2.06,4.5,4.23,8.93,6.5,13.29,2.27,4.36,4.3,8.88,6.08,13.57h-6.33Z"/>
  <path class="cls-1" d="m265.14,556.57c-3.33-.42-6.28-1.69-8.86-3.8l-2.88-4.08c-.94-2.11-1.51-4.33-1.72-6.68-.21-2.34-.32-4.71-.32-7.1.28-4.97.95-9.82,2-14.55,1.05-4.73,2.57-9.35,4.54-13.85h6.05v1.55c-2.06,4.97-3.62,10.09-4.68,15.36s-1.58,10.68-1.58,16.21c.14,2.44.62,4.71,1.44,6.82.82,2.11,2.14,3.98,3.97,5.62,2.25,1.97,4.87,2.95,7.88,2.95,1.78-.47,3.5-1.2,5.17-2.18,1.66-.98,3.32-1.99,4.96-3.02l.28-.7,2.46-2.46h.42l.91-1.62.7-.21,1.83-2.88h.42l3.16-5.2h6.12v1.34c-1.83,3-3.94,5.93-6.33,8.79l-.7.21-1.83,2.53-1.34.63-.21.7c-1.83,1.5-3.75,2.74-5.77,3.73-2.02.98-4.24,1.62-6.68,1.9h-9.42Z"/>
  <path d="m338.55,555.45c-2.58-.14-4.92-.82-7.03-2.04-1.22-1.36-1.66-3.09-1.34-5.2,1.36-4.5,3.28-8.78,5.77-12.83,2.48-4.05,4.62-8.26,6.4-12.62l-2.04-.7c-7.64,1.36-15.15,3.43-22.54,6.22-7.38,2.79-14.92,4.77-22.61,5.94v-1.12c7.97-3.14,16.21-6.02,24.71-8.65,8.51-2.62,17.21-3.94,26.12-3.94l2.25.84.42,2.74c-1.97,4.36-4.23,8.61-6.79,12.76-2.56,4.15-4.35,8.61-5.38,13.39l.91,2.04c2.53,1.5,5.53,2.11,9,1.83,3.47-.61,7.08-.84,10.83-.7v1.12l-7.66.91h-11.04Zm4.92-37.69v-2.25l-.21-.21v-11.32h6.33v11.11l.21,2.67h-6.33Zm8.16,5.91v-2.53l.63-12.38h6.33v1.12l-.63,13.78h-6.33Z"/>
  <path d="m373.85,555.45l-.42-.21c-.75-3.33-.98-6.8-.7-10.41l.28-4.92h-.49l-3.59,5.84-6.54.21v-1.12l6.96-10.83,4.29-5.84h.49l2.67-4.29.7-.21,1.55-2.74,6.54-.21v1.12l-1.12,1.55-6.96,9.49-1.62,2.25h3.66v4.29l-.49,11.32h.49l1.12-1.12h6.05v1.12l-5.13,4.5-7.73.21Zm38.39,2.74c-2.86-.19-5.64-.73-8.33-1.62-2.7-.89-5.26-1.94-7.7-3.16l-1.34,2.95h-6.33v-1.12l2.74-5.91-.91-.63v-.49l-1.83-1.34-.21-.63-.7-.28-.63-2.04h6.26l.91.7.91-3.87-.63-.84c-2.3,0-4.27-.38-5.91-1.12v-2.04l4.5-9.28h-.91c-2.53.89-5.3,1.2-8.3.91v-1.12c2.11-1.08,4.41-1.8,6.89-2.18,2.48-.38,5.06-.47,7.73-.28l.91.42.21,2.95-4.71,9.7c1.97.42,4.01.8,6.12,1.12.42,1.17.56,2.44.42,3.8l-2.74,6.54c3.05,2.44,6.26,4.29,9.63,5.55s7.03,1.9,10.97,1.9c2.53-.42,5.23-.56,8.09-.42v1.34l-4.92.49h-10.2Zm-2.95-8.37v-3.16l.28-3.59h-6.82v-1.12l6.54-1.83c.47-2.11.63-4.36.49-6.75h-.49c-2.25.42-4.64.56-7.17.42v-1.12l7.66-2.74v-3.16h-7.66v-1.12c2.53-.28,5.09-.73,7.66-1.34v-4.71h-.49c-2.11.89-4.25,1.68-6.43,2.36-2.18.68-4.54.86-7.07.53v-1.12c2.25-.89,4.5-1.78,6.75-2.67,2.25-.89,4.59-1.64,7.03-2.25v-5.2h-.49c-2.72,1.5-5.79,2.02-9.21,1.55v-1.12c3-1.64,6.07-2.98,9.21-4.01l.21-1.62-.21-7.24.21-.42h6.12l.21,8.16c3.19-.19,6.21.19,9.07,1.12v.42l.63.21c1.22,1.69,1.69,3.66,1.41,5.91,1.78-.33,3.35-.12,4.71.63v1.12h-4.99c-.42,2.72-1.31,5.3-2.67,7.73l-7.66,1.55v3.59c3.14-.28,6,.02,8.58.91.42,1.08.56,2.2.42,3.38l-1.12,2.53h-6.33v-1.12c.75-.94,1.12-1.99,1.12-3.16l-1.55-.7-1.12.21v7.24h.91c3.14-1.22,6.58-1.66,10.34-1.34v1.34l-11.25,3.16-.49,8.58h-6.33Zm11.11-35.65v-2.04c-.33-1.22-.94-2.34-1.83-3.38l-1.83-.49-1.12.21v2.95l.21,3.38h.49l4.08-.63Zm-2.95,8.3c1.22-1.92,2.04-3.94,2.46-6.05h-.42l-3.38,1.12-.28,2.46.28,2.74h1.12l.21-.28Z"/>
  <path d="m437.06,544.2v-1.62c2.58-4.22,5.11-8.54,7.59-12.97,2.48-4.43,4.92-8.82,7.31-13.18h6.33v1.12l-15.12,26.65h-6.12Zm12.45-31.85v-1.12l17.37-2.04v-.42h-.91v-1.12l.21-5.41-.63-4.99h6.33c.56,3.33.77,6.8.63,10.41l-.21.84h2.25c2.25-.28,4.51-.49,6.79-.63,2.27-.14,4.61-.14,7,0v1.12c-6.61.28-13.08.88-19.41,1.79s-12.8,1.44-19.41,1.58Zm1.12,46.27v-1.12c2.53-1.03,5.09-2.12,7.66-3.27,2.58-1.15,5.44-1.49,8.58-1.02v1.12c-2.58,1.08-5.15,2.18-7.7,3.3-2.56,1.12-5.4,1.45-8.54.98Zm7.24-8.09l-6.33-1.62v-1.12h6.54l6.54,1.55v1.2h-6.75Zm9.91,10.34v-1.12c.75-2.72,1.31-5.54,1.69-8.47.37-2.93.56-5.89.56-8.89h-1.12c-2.58.61-5.37.84-8.37.7v-1.12l9.7-2.74v-6.12l-.21-.91h-.91c-2.39.61-4.79,1.1-7.21,1.48-2.42.38-4.98.49-7.7.35l-.21-1.34c2.72-.33,5.39-.75,8.02-1.27,2.62-.52,5.23-1.08,7.8-1.69l.21-4.29-.21-2.04h-.91c-2.86,1.08-6.02,1.45-9.49,1.12v-1.12l10.12-2.88v-4.29l-.21-2.32h6.33l.21,5.7c2.11,0,4.25.04,6.43.11s4.11.71,5.8,1.93c1.17,1.5,1.62,3.38,1.34,5.62h11.25v1.12l-11.46.42-1.83,7.66h-6.33v-1.12l1.34-5.41h-.84l-5.2.91v6.54h.91l6.26-.21.28,1.12-7.45,1.83c0,3.61-.19,7.15-.56,10.62-.38,3.47-.94,6.84-1.69,10.12h-6.33Zm15.33-32.91v-2.74l-1.12-2.46c-1.03-1.08-2.39-1.62-4.08-1.62l-1.55.49-.21,4.29.21,2.67h1.34l5.41-.63Zm10.41,29.74c-2.58-.14-5.15-.28-7.7-.42-2.56-.14-4.89-.89-7-2.25-.47-.94-.61-1.92-.42-2.95.89-2.58,2.23-4.92,4.01-7.03l1.83-1.76h6.12v1.12l-2.74,3.38h-.42c-1.08,1.83-1.9,3.7-2.46,5.62l1.34,1.34c2.39.8,4.9,1.27,7.52,1.41,2.62.14,5.23.28,7.8.42v1.12h-7.88Z"/>
  <path d="m519.46,558.4l-.91-.21v-1.12c3.33,0,6.61-.24,9.84-.7s6.42-.84,9.56-1.12l.49-13.57h-.91c-2.25.61-4.55,1.18-6.89,1.72-2.34.54-4.78.64-7.31.32v-1.12l15.12-3.38.21-.91v-11.74h-.91c-2.39.61-4.83,1.18-7.31,1.72-2.49.54-5.16.64-8.02.32l-1.41,7.24h-6.26v-1.12c1.03-5.58,2.14-11.11,3.34-16.59s2.57-10.94,4.11-16.38h6.05v2.04c-1.17,3.89-2.18,7.84-3.02,11.85s-1.64,7.96-2.39,11.85h.7l15.12-3.38v-2.25l-.49-10.2.28-.42h6.05l.28,11.74h1.34c2.72-.47,5.46-.81,8.23-1.02,2.77-.21,5.58-.25,8.44-.11v1.12c-3,.14-6,.4-9,.77-3,.38-5.93.87-8.79,1.48v11.95l-.21.91h.42c2.11-.33,4.22-.6,6.33-.81s4.29-.25,6.54-.11v1.12l-13.29,1.83-.49,14.2h.49c2.25-.28,5.02-.67,8.3-1.16,3.28-.49,6.12-.81,8.51-.95h9.07l.42.21v1.12c-8.25.14-16.84.95-25.77,2.43s-17.54,2.29-25.84,2.43Z"/>
  <path d="m590.41,557.91v-1.76c.75-3.47,1.6-6.94,2.57-10.41.96-3.47,1.6-7.01,1.93-10.62l-.7-1.34h-1.34c-1.97.89-4.04,1.57-6.22,2.04-2.18.47-4.46.54-6.86.21v-1.12c3-1.03,6.05-1.89,9.14-2.57,3.09-.68,6.35-.88,9.77-.6l1.83,1.12c.61,1.36.84,2.86.7,4.5-.61,3.47-1.37,6.9-2.29,10.3-.91,3.4-1.75,6.81-2.5,10.23h-6.05Zm-8.58-37.41v-1.12c3.42-.75,6.9-1.28,10.44-1.58,3.54-.3,7.21-.39,11-.25l.63.21v1.12c-3.89-.14-7.57.13-11.04.81-3.47.68-7.15.95-11.04.81Zm41.27,14.41v-4.29l.21-2.46h-.91c-2.39.75-4.83,1.31-7.31,1.69-2.49.38-5.16.49-8.02.35v-1.12l16.45-3.45.49-5.13h6.12v4.01h1.12l4.29-.63h9v1.12c-2.58.14-5.1.36-7.56.67-2.46.31-4.91.69-7.35,1.16l-.42,8.09h-6.12Zm-10.41,24.4v-.21c-.56-2.58-1.01-5.3-1.34-8.16v-10.41l.7-4.01h6.05v1.34l-.21,1.76h.49c2.67-1.5,5.53-2.53,8.58-3.09h10.12c1.64.28,3.14.94,4.5,1.97,1.69,2.11,2.44,4.59,2.25,7.45-.14,2.72-.82,5.2-2.04,7.45h1.2v1.12l-2.04.28c-1.97.56-4.15.77-6.54.63l-1.62-.21c-2.25.28-4.58.54-7,.77-2.42.23-4.82.28-7.21.14v1.55l.21,1.62h-6.12Zm1.41-43.38v-1.12c3.61-1.92,7.18-4.05,10.72-6.4,3.54-2.34,7.63-3.35,12.27-3.02v1.12c-3.75,1.64-7.36,3.7-10.83,6.19-3.47,2.49-7.52,3.56-12.16,3.23Zm21.16,37.48v-.63c1.36-2.44,2.11-5.16,2.25-8.16-.14-1.97-.96-3.7-2.46-5.2-1.03-1.03-2.39-1.48-4.08-1.34-2.39.61-4.64,1.55-6.75,2.81s-4.36,2.2-6.75,2.81v3.87l.63,7.24h3.66l13.5-1.41Z"/>
</svg>